<?xml version="1.0" encoding="UTF-8"?>
<svg width="20px" height="20px" viewBox="0 0 20 20" version="1.1" xmlns="http://www.w3.org/2000/svg" xmlns:xlink="http://www.w3.org/1999/xlink">
    <!-- Generator: sketchtool 48.2 (47327) - http://www.bohemiancoding.com/sketch -->
    <title>921F1FBC-6BDB-42F2-A50B-E5DF10689E4D</title>
    <desc>Created with sketchtool.</desc>
    <defs></defs>
    <g id="talent-landing" stroke="none" stroke-width="1" fill="none" fill-rule="evenodd" transform="translate(-190.000000, -2095.000000)">
        <g id="Group-2" transform="translate(190.000000, 2057.000000)">
            <g id="Group-10">
                <g id="Group-7" transform="translate(0.000000, 38.000000)">
                    <g id="facebook">
                        <path d="M9.95957265,0.0807692308 C15.4604274,0.0807692308 19.9192308,4.54025641 19.9192308,10.0403419 C19.9192308,15.5411966 15.4604274,19.9999145 9.95957265,19.9999145 C4.45880342,19.9999145 0,15.5411966 0,10.0403419 C0,4.54025641 4.45880342,0.0807692308 9.95957265,0.0807692308 Z" id="Fill-1" fill="#3B5998"></path>
                        <path d="M11.1722222,6.93735043 L12.4558974,6.93735043 L12.4558974,5.04136752 L10.9468376,5.04136752 L10.9468376,5.04803419 C9.11863248,5.11282051 8.74401709,6.14042735 8.71094017,7.21982906 L8.70726496,7.21982906 L8.70726496,8.16666667 L7.46230769,8.16666667 L7.46230769,10.0236752 L8.70726496,10.0236752 L8.70726496,15.0009402 L10.5832479,15.0009402 L10.5832479,10.0236752 L12.1204274,10.0236752 L12.4171795,8.16666667 L10.5839316,8.16666667 L10.5839316,7.59478632 C10.5839316,7.22982906 10.8266667,6.93735043 11.1722222,6.93735043 Z" id="Fill-2" fill="#FFFFFF"></path>
                    </g>
                </g>
            </g>
        </g>
    </g>
</svg>