<?xml version="1.0" encoding="UTF-8"?>
<svg width="36px" height="36px" viewBox="0 0 36 36" version="1.1" xmlns="http://www.w3.org/2000/svg" xmlns:xlink="http://www.w3.org/1999/xlink">
    <!-- Generator: sketchtool 48.2 (47327) - http://www.bohemiancoding.com/sketch -->
    <title>1E9397DC-9642-41AE-8DDC-40B932828193</title>
    <desc>Created with sketchtool.</desc>
    <defs></defs>
    <g id="talent-landing" stroke="none" stroke-width="1" fill="none" fill-rule="evenodd" transform="translate(-702.000000, -2065.000000)">
        <g id="Group-2" transform="translate(190.000000, 2057.000000)" fill="#00C1D8">
            <g id="logo-blue" transform="translate(512.000000, 8.000000)">
                <g id="logo">
                    <g id="Group-3">
                        <path d="M35.0522449,6.70167939 L18.5510204,0.194290076 C18.1983673,0.0550534351 17.8016327,0.0550534351 17.4489796,0.194290076 L0.947755102,6.70167939 C0.94022449,6.70167939 0.0365510204,7.0168855 0,8.0939542 L0,29.140855 C0,29.7856489 0.418683673,30.3645802 1.0360102,30.5624427 L17.5372347,35.926626 C17.5590918,35.9341374 17.7574592,36 18,36 C18.2572347,36 18.4409082,35.9341374 18.4627653,35.926626 L34.9639898,30.5624427 C35.5813163,30.3645802 36,29.7856489 36,29.140855 L36,8.0939542 C35.9486633,7.0168855 35.0597755,6.70167939 35.0522449,6.70167939 Z M16.5035816,32.3823817 L3,27.9929466 L3,10.0898626 L16.5035816,14.4796641 L16.5035816,32.3823817 Z M18.0783673,11.7810687 L6,7.85322137 L18.0783673,3.0898626 L30.1567347,7.85322137 L18.0783673,11.7810687 Z M33.4964184,27.9854351 L20,32.3748702 L20,14.4721527 L33.4817245,10.0898626 L33.4892551,10.0898626 L33.4892551,27.9854351 L33.4964184,27.9854351 Z" id="Fill-1"></path>
                    </g>
                    <path d="M18.1523776,6 L17.6455306,6 C16.7346939,6 16,6.73282443 16,7.64134351 C16,8.55022901 16.7346939,9.28305344 17.6455306,9.28305344 L18.1523776,9.28305344 C19.0635816,9.28305344 19.7982755,8.55022901 19.7982755,7.64134351 C19.7982755,6.73282443 19.0635816,6 18.1523776,6 Z" id="Fill-4"></path>
                    <path d="M25.895602,19 C24.844898,19 24,19.8498015 24,20.8904122 C24,21.9384427 24.8524286,22.7810992 25.895602,22.7810992 C26.9459388,22.7810992 27.7912041,21.9312977 27.7912041,20.8904122 C27.7912041,19.8498015 26.9387755,19 25.895602,19 Z" id="Fill-6"></path>
                    <path d="M9.8955102,19 C8.84480612,19 8,19.8502595 8,20.8907786 C8,21.9385344 8.85196939,22.7815573 9.8955102,22.7815573 C10.9459388,22.7815573 11.7907449,21.9312977 11.7907449,20.8907786 C11.7907449,19.8502595 10.9459388,19 9.8955102,19 Z" id="Fill-9"></path>
                </g>
            </g>
        </g>
    </g>
</svg>