<?xml version="1.0" encoding="UTF-8"?>
<svg width="36px" height="36px" viewBox="0 0 36 36" version="1.1" xmlns="http://www.w3.org/2000/svg" xmlns:xlink="http://www.w3.org/1999/xlink">
    <!-- Generator: sketchtool 48.2 (47327) - http://www.bohemiancoding.com/sketch -->
    <title>1EF311B9-D4F9-444E-BBB0-175578CE2940</title>
    <desc>Created with sketchtool.</desc>
    <defs></defs>
    <g id="Symbols" stroke="none" stroke-width="1" fill="none" fill-rule="evenodd">
        <g id="logo/white" fill="#FFFFFF">
            <g id="logo/blue">
                <path d="M35.0522449,6.6283624 L18.5510204,0.104688803 C18.1983673,-0.0348962678 17.8016327,-0.0348962678 17.4489796,0.104688803 L0.947755102,6.6283624 C0.94022449,6.6283624 0.0365510204,6.94435729 0,8.02412128 L0,29.1236904 C0,29.7700979 0.418683673,30.3504779 1.0360102,30.5488356 L17.5372347,35.9264423 C17.5590918,35.9339726 17.7574592,36 18,36 C18.2572347,36 18.4409082,35.9339726 18.4627653,35.9264423 L34.9639898,30.5488356 C35.5813163,30.3504779 36,29.7700979 36,29.1236904 L36,8.02412128 C35.9486633,6.94435729 35.0597755,6.6283624 35.0522449,6.6283624 Z M16.5035816,32.3733288 L3,27.9729095 L3,10.0250243 L16.5035816,14.425811 L16.5035816,32.3733288 Z M18.0783673,11.7204625 L6,7.78278604 L18.0783673,3.00750729 L30.1567347,7.78278604 L18.0783673,11.7204625 Z M33.4964184,27.9653792 L20,32.3657986 L20,14.4182807 L33.4817245,10.0250243 L33.4892551,10.0250243 L33.4892551,27.9653792 L33.4964184,27.9653792 Z" id="shape"></path>
                <path d="M18.1523776,6 L17.6455306,6 C16.7346939,6 16,6.73282443 16,7.64134351 C16,8.55022901 16.7346939,9.28305344 17.6455306,9.28305344 L18.1523776,9.28305344 C19.0635816,9.28305344 19.7982755,8.55022901 19.7982755,7.64134351 C19.7982755,6.73282443 19.0635816,6 18.1523776,6 Z" id="circle-up"></path>
                <path d="M25.895602,19 C24.844898,19 24,19.8498015 24,20.8904122 C24,21.9384427 24.8524286,22.7810992 25.895602,22.7810992 C26.9459388,22.7810992 27.7912041,21.9312977 27.7912041,20.8904122 C27.7912041,19.8498015 26.9387755,19 25.895602,19 Z" id="circle-right"></path>
                <path d="M9.8955102,19 C8.84480612,19 8,19.8502595 8,20.8907786 C8,21.9385344 8.85196939,22.7815573 9.8955102,22.7815573 C10.9459388,22.7815573 11.7907449,21.9312977 11.7907449,20.8907786 C11.7907449,19.8502595 10.9459388,19 9.8955102,19 Z" id="circle-left"></path>
            </g>
        </g>
    </g>
</svg>