<?xml version="1.0" encoding="UTF-8"?>
<svg width="20px" height="20px" viewBox="0 0 20 20" version="1.1" xmlns="http://www.w3.org/2000/svg" xmlns:xlink="http://www.w3.org/1999/xlink">
    <!-- Generator: sketchtool 48.2 (47327) - http://www.bohemiancoding.com/sketch -->
    <title>D77FCEBF-DB41-4391-A3DF-3BEA498FAD54</title>
    <desc>Created with sketchtool.</desc>
    <defs></defs>
    <g id="talent-landing" stroke="none" stroke-width="1" fill="none" fill-rule="evenodd" transform="translate(-230.000000, -2095.000000)">
        <g id="Group-2" transform="translate(190.000000, 2057.000000)">
            <g id="Group-10">
                <g id="Group-7" transform="translate(0.000000, 38.000000)">
                    <g id="twitter" transform="translate(40.000000, 0.000000)">
                        <path d="M19.9462222,9.91692308 C19.9462222,15.3641758 15.4808889,19.7804396 9.97311111,19.7804396 C4.46533333,19.7804396 0,15.3641758 0,9.91692308 C0,4.46967033 4.46533333,0.0534065934 9.97311111,0.0534065934 C15.4808889,0.0534065934 19.9462222,4.46967033 19.9462222,9.91692308 Z" id="Fill-1" fill="#55ACEE"></path>
                        <path d="M16.0815556,7.1421978 C15.6544444,7.32945055 15.1944444,7.45648352 14.7126667,7.51318681 C15.2048889,7.2210989 15.5824444,6.75934066 15.7613333,6.20901099 C15.3004444,6.47868132 14.79,6.67516484 14.2473333,6.78087912 C13.8124444,6.32241758 13.1926667,6.03648352 12.5068889,6.03648352 C11.19,6.03648352 10.1233333,7.09252747 10.1233333,8.39384615 C10.1233333,8.57846154 10.144,8.7589011 10.1848889,8.93142857 C8.204,8.83274725 6.44711111,7.89428571 5.27177778,6.46747253 C5.066,6.81604396 4.94888889,7.2210989 4.94888889,7.65296703 C4.94888889,8.47120879 5.36977778,9.19318681 6.00866667,9.6156044 C5.618,9.60351648 5.25088889,9.49714286 4.92888889,9.32021978 C4.92888889,9.33054945 4.92888889,9.34 4.92888889,9.35032967 C4.92888889,10.4920879 5.75088889,11.4450549 6.84111111,11.6615385 C6.64155556,11.7156044 6.43066667,11.7448352 6.21355556,11.7448352 C6.06,11.7448352 5.91066667,11.7301099 5.76466667,11.7026374 C6.06866667,12.6393407 6.94888889,13.3208791 7.99222222,13.3397802 C7.17622222,13.9725275 6.14844444,14.3485714 5.03133333,14.3485714 C4.83844444,14.3485714 4.64844444,14.3382418 4.46266667,14.316044 C5.51733333,14.9848352 6.77,15.3753846 8.11622222,15.3753846 C12.5008889,15.3753846 14.8993333,11.7824176 14.8993333,8.66703297 C14.8993333,8.56483516 14.8966667,8.46351648 14.8924444,8.3621978 C15.3584444,8.02989011 15.7622222,7.61450549 16.0815556,7.1421978 Z" id="Fill-2" fill="#F1F2F2"></path>
                    </g>
                </g>
            </g>
        </g>
    </g>
</svg>