<svg xmlns="http://www.w3.org/2000/svg" width="30" height="30" viewBox="0 0 30 30">
    <g fill="#FFF" fill-rule="evenodd">
        <path d="M14.985 12.626a2.922 2.922 0 0 1-2.918-2.919c0-1.609 1.31-2.918 2.918-2.918 1.61 0 2.919 1.31 2.919 2.918 0 1.61-1.31 2.919-2.919 2.919zm0-7.086a4.172 4.172 0 0 0-4.167 4.167 4.172 4.172 0 0 0 4.167 4.167 4.172 4.172 0 0 0 4.167-4.167 4.172 4.172 0 0 0-4.167-4.167z"/>
        <path d="M26.224 28.751h2.498v-2.497h-2.498v2.497zm-1.248-1.873h-7.493v-1.873H15.61v-5.62h1.085l.377-2.259a7.633 7.633 0 0 0 1.682-.699l1.866 1.333 2.418-2.419-1.333-1.865c.301-.534.535-1.097.7-1.682l2.258-.377v-3.42l-2.259-.376a7.655 7.655 0 0 0-.699-1.683L22.804 4.4h4.045v8.83a2.495 2.495 0 0 0-1.873 2.409c0 1.16.799 2.13 1.873 2.409v6.957h-1.873v1.873zm-11.24 1.873h2.498v-2.497h-2.497v2.497zm-1.248-1.873H4.995v-1.873H3.122v-6.957a2.495 2.495 0 0 0 1.873-2.409c0-1.16-.799-2.13-1.873-2.409V4.4h4.045l1.098 1.538a7.655 7.655 0 0 0-.699 1.683l-2.259.376v3.42l2.26.377c.164.585.398 1.148.698 1.682L6.933 15.34 9.35 17.76l1.865-1.333c.534.3 1.097.535 1.683.7l.377 2.258h1.085v5.62h-1.873v1.873zm-11.24 1.873h2.498v-2.497H1.25v2.497zm0-13.112a1.25 1.25 0 0 1 2.498 0 1.25 1.25 0 0 1-1.248 1.249 1.25 1.25 0 0 1-1.25-1.249zM9.487 3.286l1.681 1.2.355-.227a6.413 6.413 0 0 1 2.06-.856l.412-.09.339-2.035h1.305l.339 2.034.41.091c.73.162 1.424.45 2.062.856l.355.227 1.68-1.2.923.922-1.2 1.68.226.356c.406.637.694 1.33.856 2.06l.091.412 2.035.34v1.303l-2.035.34-.091.41a6.407 6.407 0 0 1-.856 2.062l-.226.355 1.2 1.68-.922.923-1.68-1.2-.356.226a6.413 6.413 0 0 1-2.061.856l-.411.091-.34 2.035h-1.304l-.34-2.035-.41-.091a6.413 6.413 0 0 1-2.061-.856l-.356-.227-1.68 1.2-.923-.921 1.201-1.68-.226-.356a6.407 6.407 0 0 1-.856-2.061l-.092-.412-2.034-.339V9.055l2.034-.339.092-.411c.161-.73.45-1.424.856-2.061l.226-.356-1.2-1.68.922-.922zm19.236 12.353a1.25 1.25 0 0 1-1.249 1.249 1.25 1.25 0 0 1-1.249-1.249 1.25 1.25 0 0 1 2.498 0zm-.624 2.409a2.495 2.495 0 0 0 1.873-2.409c0-1.16-.8-2.13-1.873-2.409V3.151h-5.982L20.62 1.655l-1.866 1.332a7.633 7.633 0 0 0-1.682-.699L16.695.03h-3.42L12.9 2.29a7.633 7.633 0 0 0-1.683.698L9.351 1.655 7.854 3.15h-5.98v10.08A2.495 2.495 0 0 0 0 15.638c0 1.16.799 2.13 1.873 2.409v6.957H0V30h4.995v-1.873h7.493V30h4.995v-1.873h7.493V30h4.995v-4.995h-1.873v-6.957z"/>
    </g>
</svg>
