<svg xmlns="http://www.w3.org/2000/svg" width="30" height="30" viewBox="0 0 30 30">
    <g fill="#FFF" fill-rule="evenodd">
        <path d="M1.249 5.024h27.473V1.278H1.249v3.746zm0 23.727h27.473V6.273H1.249v22.478zM0 30h29.97V.03H0V30z"/>
        <path d="M26.224 3.776h1.25v-1.25h-1.25zM23.727 3.776h1.249v-1.25h-1.25zM21.23 3.776h1.248v-1.25h-1.249zM3.122 3.776h14.985v-1.25H3.122zM21.587 13.408l-.882.883 2.763 2.763-2.763 2.764.883.883 3.646-3.647-3.647-3.646M9.266 14.29l-.883-.882-3.646 3.646 3.646 3.647.883-.883-2.764-2.764 2.764-2.763M12.119 22.311l4.12-10.073 1.156.472-4.12 10.074-1.156-.473"/>
        <path d="M3.746 24.38h22.478V10.644H3.746V24.38zm-1.248 1.25h24.975V9.394H2.498V25.63z"/>
        <path d="M16.859 17.512h1.248v-1.249H16.86zM19.356 17.512h1.249v-1.249h-1.249zM11.239 17.512h1.249v-1.249h-1.249zM8.741 17.512h1.25v-1.249H8.74z"/>
    </g>
</svg>
