<svg xmlns="http://www.w3.org/2000/svg" width="36" height="36" viewBox="0 0 36 36">
    <g fill="#FFF" fill-rule="evenodd">
        <path d="M21.146 17.831l-.8-.237-2.364 2.364-2.363-2.364-.803.238c-1.611.483-2.742 1.919-2.814 3.523-1.32-2.541-.918-5.753 1.212-7.883a6.724 6.724 0 0 1 4.769-1.972c1.726 0 3.453.657 4.768 1.972 2.125 2.125 2.53 5.328 1.22 7.866-.075-1.594-1.208-3.022-2.825-3.507zm1.34 5.417a6.742 6.742 0 0 1-9 .007v-1.741c0-.978.715-1.907 1.704-2.23l2.792 2.793 2.793-2.792c.995.324 1.711 1.248 1.711 2.217v1.746zm1.324-10.836c-3.213-3.213-8.442-3.213-11.656 0-3.213 3.214-3.213 8.443 0 11.656a8.216 8.216 0 0 0 5.828 2.41c2.111 0 4.222-.803 5.828-2.41 3.213-3.213 3.213-8.442 0-11.656z"/>
        <path d="M17.982 16.632a1.315 1.315 0 0 1-1.313-1.313 1.315 1.315 0 0 1 2.627 0c0 .724-.59 1.313-1.314 1.313zm0-4.125a2.815 2.815 0 0 0-2.812 2.812 2.815 2.815 0 0 0 2.812 2.811 2.815 2.815 0 0 0 2.812-2.811 2.815 2.815 0 0 0-2.812-2.812zM17.982 34.501a2.25 2.25 0 0 1-2.247-2.247 2.25 2.25 0 0 1 2.247-2.248 2.25 2.25 0 0 1 2.248 2.248 2.25 2.25 0 0 1-2.248 2.247zm4.085-3.626c-.185.059-.375.098-.562.149-.512-1.46-1.89-2.517-3.523-2.517-1.631 0-3.008 1.055-3.52 2.514-.226-.06-.454-.11-.674-.181l-.466 1.424c.307.1.625.172.94.253.139 1.94 1.745 3.483 3.72 3.483s3.58-1.54 3.72-3.48c.274-.07.55-.131.818-.217l-.453-1.428zM3.746 20.265A2.25 2.25 0 0 1 1.5 18.018a2.25 2.25 0 0 1 2.247-2.248 2.25 2.25 0 0 1 2.248 2.248 2.25 2.25 0 0 1-2.248 2.247zm3.747-2.247c0-1.632-1.055-3.009-2.514-3.522.06-.224.11-.453.181-.673l-1.424-.466c-.1.307-.172.625-.253.94C1.543 14.437 0 16.043 0 18.018s1.54 3.58 3.48 3.72c.07.274.131.55.217.819l1.428-.454c-.059-.184-.098-.375-.149-.562 1.46-.512 2.517-1.89 2.517-3.522zM28.865 25.985c-.278.38-.58.75-.898 1.1l1.11 1.007c.353-.389.688-.8.997-1.22l-1.209-.887M30.293 23.536c-.192.428-.41.853-.65 1.263l1.296.754c.265-.456.508-.928.72-1.403l-1.366-.614M24.66 29.738a13.63 13.63 0 0 1-1.268.638l.603 1.372c.48-.211.954-.45 1.407-.708l-.743-1.302M26.959 28.083c-.352.314-.724.613-1.106.888l.875 1.216c.425-.306.839-.638 1.23-.986l-.999-1.118M32.219 20.265a2.25 2.25 0 0 1-2.248-2.247 2.25 2.25 0 0 1 2.248-2.248 2.25 2.25 0 0 1 2.247 2.248 2.25 2.25 0 0 1-2.247 2.247zm.266-5.967c-.07-.274-.132-.55-.217-.818l-1.428.452c.058.185.098.376.149.563-1.46.512-2.517 1.89-2.517 3.523 0 1.631 1.055 3.008 2.514 3.52-.061.226-.11.455-.181.674l1.423.467c.101-.307.173-.626.254-.942 1.94-.138 3.483-1.744 3.483-3.72 0-1.974-1.54-3.58-3.48-3.719zM26.835 5.925l-.886 1.21c.38.277.75.58 1.1.897l1.007-1.109c-.389-.353-.8-.688-1.22-.998M24.114 4.34L23.5 5.707c.43.193.855.411 1.262.649l.755-1.295a14.917 14.917 0 0 0-1.403-.72M29.165 8.042l-1.118.998c.314.352.613.724.889 1.107l1.216-.876a15.043 15.043 0 0 0-.987-1.229M31.004 10.597l-1.301.743c.233.408.447.834.637 1.267l1.372-.603c-.21-.48-.45-.954-.708-1.407M5.026 10.483c-.264.453-.507.925-.721 1.403l1.367.614c.193-.43.411-.855.648-1.262l-1.294-.755M9.236 5.848c-.426.306-.839.638-1.23.987l.999 1.118c.351-.314.723-.613 1.106-.889l-.875-1.216M6.888 7.944c-.353.389-.689.8-.998 1.22l1.209.887c.278-.38.58-.75.898-1.1l-1.11-1.007M17.982 6.03a2.25 2.25 0 0 1-2.247-2.249 2.25 2.25 0 0 1 2.247-2.247A2.25 2.25 0 0 1 20.23 3.78a2.25 2.25 0 0 1-2.248 2.248zm3.72-2.512c-.138-1.94-1.744-3.483-3.72-3.483-1.974 0-3.58 1.54-3.719 3.48-.274.07-.55.131-.819.217l.454 1.428c.184-.059.374-.098.562-.149.512 1.46 1.89 2.517 3.522 2.517s3.009-1.055 3.521-2.514c.225.061.454.11.674.182l.466-1.424c-.307-.1-.625-.173-.94-.254zM11.97 4.288c-.481.21-.955.45-1.408.708l.743 1.301a13.63 13.63 0 0 1 1.267-.637l-.603-1.372M5.625 23.428l-1.372.603c.21.48.449.954.708 1.407l1.301-.743a13.63 13.63 0 0 1-.637-1.267M8.916 28.003l-1.007 1.11c.389.352.799.688 1.22.997l.887-1.209c-.38-.278-.75-.58-1.1-.898M7.03 25.889l-1.217.875c.306.426.638.839.986 1.23l1.118-.999a13.586 13.586 0 0 1-.888-1.106M11.202 29.68l-.754 1.294c.453.264.925.507 1.403.721l.614-1.367c-.43-.193-.855-.411-1.263-.648"/>
    </g>
</svg>
