<svg xmlns="http://www.w3.org/2000/svg" width="38" height="30" viewBox="0 0 38 30">
    <g fill="#FFF" fill-rule="evenodd">
        <path d="M25.763 6.6L24.65 7.714l4.957 4.957-4.957 4.957 1.114 1.114 6.07-6.071-6.07-6.071M13.16 7.714L12.046 6.6l-6.07 6.07 6.07 6.072 1.114-1.114-4.957-4.957 4.957-4.957M15.026 20.256l6.296-15.757 1.463.585-6.297 15.756-1.462-.584"/>
        <path d="M36.234 26.61l-1.21 1.815H2.785L1.576 26.61v-1.337h34.659v1.337zM3.15 23.699h31.507V1.643H3.151v22.055zm33.083 0V.068H1.575v23.63H0v3.39L1.942 30h33.926l1.941-2.912v-3.39h-1.575z"/>
        <path d="M14.966 27.637h1.576v-1.575h-1.576zM18.117 27.637h1.575v-1.575h-1.575zM21.268 27.637h1.575v-1.575h-1.575z"/>
    </g>
</svg>
