<svg xmlns="http://www.w3.org/2000/svg" width="36" height="36" viewBox="0 0 36 36">
    <g fill="#FFF" fill-rule="evenodd">
        <path d="M10.49 34.501h14.985v-3.746H10.49v3.746zm.967-12.318L16.97 9.776h.262v6.881a2.244 2.244 0 0 0-1.498 2.11 2.25 2.25 0 0 0 2.247 2.248 2.25 2.25 0 0 0 2.248-2.248c0-.976-.628-1.8-1.498-2.11V9.776h.262l5.514 12.407c-1.41.827-4.62 3.128-4.99 7.074h-3.071c-.37-3.946-3.58-6.247-4.99-7.074zm6.525-4.165a.75.75 0 0 1 0 1.498.75.75 0 0 1 0-1.498zm3.046 11.239c.485-4.01 4.718-6.043 4.764-6.065l.666-.312-6.49-14.603h-3.971L9.507 22.88l.666.312c.045.022 4.279 2.055 4.763 6.065H8.991V36h17.983v-6.743h-5.946z"/>
        <path d="M32.968 3.032h1.498V1.534h-1.498v1.498zM28.472 15.77h1.499V14.27h-1.499v1.499zM17.233 3.032h1.499V1.534h-1.499v1.498zM5.994 15.77h1.499V14.27H5.994v1.499zM1.5 3.032h1.498V1.534H1.5v1.498zM31.469.035v1.499H20.23V.035h-4.495v1.499H4.495V.035H0v4.496h4.496V3.032h7.692a12.033 12.033 0 0 0-6.159 9.74H4.496v4.496H8.99v-4.495H7.528c.332-4.622 3.695-8.508 8.207-9.495v1.253h4.495V3.278c4.512.987 7.875 4.873 8.207 9.495h-1.463v4.495h4.495v-4.495h-1.533a12.033 12.033 0 0 0-6.16-9.74h7.693V4.53h4.496V.035h-4.496z"/>
    </g>
</svg>
