<svg xmlns="http://www.w3.org/2000/svg" width="34" height="36" viewBox="0 0 34 36">
    <g fill="#FFF" fill-rule="evenodd">
        <path d="M28.83 14.099C28.723 6.326 22.303.035 14.427.035 6.484.035.023 6.432.027 14.222c-.02.204-.444 5.041 3.005 9.958 1.484 2.114 2.443 4.136 2.934 6.183.332 1.387.574 3.757.574 5.637h1.498c0-1.983-.259-4.5-.615-5.987-.536-2.233-1.57-4.423-3.164-6.694-3.118-4.444-2.745-8.91-2.738-9.024 0-7.037 5.79-12.761 12.906-12.761 7.116 0 12.905 5.724 12.905 12.76v.194l3.616 6.527h-3.224v6.743H21.73V36h1.499v-6.743h5.994v-6.744h4.269L28.83 14.1"/>
        <path d="M21.053 15.27l-.11.494a6.809 6.809 0 0 1-.91 2.192l-.271.427 1.283 1.796-.899.9-1.797-1.284-.427.272a6.813 6.813 0 0 1-2.192.91l-.494.11-.363 2.175h-1.271l-.363-2.175-.493-.11a6.813 6.813 0 0 1-2.193-.91l-.426-.272-1.798 1.284-.899-.9 1.284-1.796-.272-.427a6.809 6.809 0 0 1-.91-2.192l-.11-.494-2.176-.363v-1.272l2.176-.362.11-.494a6.809 6.809 0 0 1 .91-2.193l.272-.426L7.43 8.363l.9-.9 1.797 1.285.426-.272a6.813 6.813 0 0 1 2.193-.911l.493-.11.363-2.175h1.271l.363 2.175.494.11a6.813 6.813 0 0 1 2.192.91l.427.273 1.797-1.284.899.899-1.283 1.797.271.426c.433.68.739 1.417.91 2.193l.11.494 2.176.362v1.272l-2.176.363zm3.674.907v-3.811l-2.446-.408a8.3 8.3 0 0 0-.722-1.736l1.443-2.02-2.694-2.696-2.02 1.444a8.3 8.3 0 0 0-1.737-.722l-.408-2.447h-3.81l-.408 2.447a8.3 8.3 0 0 0-1.737.722l-2.02-1.444-2.695 2.695 1.443 2.02a8.305 8.305 0 0 0-.721 1.737l-2.447.408v3.81l2.447.409c.173.602.414 1.183.721 1.736l-1.443 2.02 2.695 2.695 2.02-1.443a8.3 8.3 0 0 0 1.737.721l.407 2.447h3.81l.409-2.447a8.3 8.3 0 0 0 1.736-.721l2.02 1.443 2.695-2.695-1.443-2.02a8.3 8.3 0 0 0 .722-1.737l2.446-.407z"/>
        <path d="M14.237 17.333a3.066 3.066 0 0 1-3.062-3.062 3.066 3.066 0 0 1 3.062-3.062 3.066 3.066 0 0 1 3.063 3.062 3.066 3.066 0 0 1-3.063 3.062zm0-7.623a4.566 4.566 0 0 0-4.56 4.561 4.566 4.566 0 0 0 4.56 4.561 4.566 4.566 0 0 0 4.562-4.56 4.566 4.566 0 0 0-4.562-4.562z"/>
    </g>
</svg>
