<svg xmlns="http://www.w3.org/2000/svg" width="36" height="36" viewBox="0 0 36 36">
    <g fill="#FFF" fill-rule="evenodd">
        <path d="M1.499 6.03h32.967V1.533H1.5v4.495zm0 11.988h32.967V7.528H1.5v10.49zm0 16.483h32.967V19.516H1.5v14.985zM0 36h35.965V.035H0V36z"/>
        <path d="M31.47 4.53h1.498V3.033h-1.499zM28.472 4.53h1.499V3.033h-1.499zM25.475 4.53h1.499V3.033h-1.499zM3.746 4.53H21.73V3.033H3.746zM29.002 9.246l-1.06 1.06 2.468 2.467-2.468 2.467 1.06 1.06 3.527-3.527-3.527-3.527M8.022 10.305l-1.06-1.06-3.526 3.528L6.963 16.3l1.06-1.06-2.468-2.467 2.467-2.468M4.496 31.504h5.994v-8.99H4.496v8.99zm-1.499 1.499h8.991V21.015h-8.99v11.988zM14.985 31.504h5.995v-8.99h-5.995v8.99zm-1.498 1.499h8.991V21.015h-8.991v11.988zM25.475 31.504h5.994v-8.99h-5.994v8.99zm-1.498 1.499h8.99V21.015h-8.99v11.988z"/>
    </g>
</svg>
