<svg xmlns="http://www.w3.org/2000/svg" width="36" height="36" viewBox="0 0 36 36">
    <g fill="#FFF" fill-rule="evenodd">
        <path d="M28.472 34.501h5.994v-5.244h-5.994V34.5zm-10.49-15.898c-1.515-1.1-6.743-5.28-6.743-10.567 0-3.586 3.025-6.502 6.743-6.502 3.719 0 6.744 2.916 6.744 6.502 0 5.288-5.228 9.466-6.744 10.567zM14.985 34.5h5.995v-5.244h-5.995V34.5zm-13.486 0h5.994v-5.244H1.499V34.5zm30.72-6.743v-4.496H18.732v-3.35c1.522-1.069 7.492-5.658 7.492-11.876 0-4.412-3.697-8-8.242-8-4.544 0-8.242 3.588-8.242 8 0 6.218 5.97 10.807 7.493 11.876v3.35H3.746v4.496H0V36h8.991v-8.242H5.245v-2.997h11.988v2.997h-3.746V36h8.991v-8.242h-3.746v-2.997H30.72v2.997h-3.746V36h8.99v-8.242H32.22z"/>
        <path d="M17.982 10.308c-1.308 0-2.372-1.02-2.372-2.272 0-1.253 1.064-2.272 2.372-2.272 1.309 0 2.373 1.019 2.373 2.272 0 1.252-1.064 2.272-2.373 2.272zm0-6.043c-2.134 0-3.87 1.692-3.87 3.77 0 2.08 1.736 3.771 3.87 3.771 2.135 0 3.872-1.692 3.872-3.77 0-2.08-1.737-3.77-3.872-3.77z"/>
    </g>
</svg>
