<svg xmlns="http://www.w3.org/2000/svg" width="30" height="30" viewBox="0 0 30 30">
    <g fill="#FFF" fill-rule="evenodd">
        <path d="M25.341 17.319a10.523 10.523 0 0 1-1.406 3.386l-.226.356 1.94 2.716-1.9 1.902-2.718-1.941-.355.226a10.52 10.52 0 0 1-3.387 1.407l-.411.091-.548 3.29H13.64l-.548-3.29-.412-.091a10.52 10.52 0 0 1-3.386-1.407l-.355-.226-2.717 1.94-1.901-1.9 1.94-2.717-.226-.356a10.523 10.523 0 0 1-1.407-3.386l-.09-.412-3.29-.548V13.67l3.29-.548.09-.412a10.523 10.523 0 0 1 1.407-3.386l.226-.356-1.94-2.716 1.9-1.901L8.94 6.29l.355-.226A10.52 10.52 0 0 1 12.68 4.66l.412-.092.548-3.289h2.689l.548 3.29.411.09a10.52 10.52 0 0 1 3.387 1.407l.355.226 2.717-1.94 1.901 1.9-1.94 2.717.226.356a10.523 10.523 0 0 1 1.406 3.386l.092.412 3.289.548v2.69l-3.29.547-.09.412zm4.63.097v-4.803l-3.51-.586a11.752 11.752 0 0 0-1.25-3.012l2.07-2.899-3.398-3.396-2.898 2.07a11.73 11.73 0 0 0-3.013-1.252L17.387.03h-4.804l-.585 3.51A11.73 11.73 0 0 0 8.986 4.79L6.088 2.72 2.69 6.116l2.07 2.899a11.752 11.752 0 0 0-1.252 3.012L0 12.613v4.803l3.51.586a11.752 11.752 0 0 0 1.25 3.013l-2.07 2.898 3.398 3.396 2.898-2.07a11.73 11.73 0 0 0 3.012 1.252L12.583 30h4.804l.585-3.51a11.73 11.73 0 0 0 3.013-1.251l2.898 2.07 3.397-3.396-2.07-2.898c.558-.949.978-1.958 1.252-3.013l3.509-.586z"/>
        <path d="M18.09 12.242l-.882.883 1.89 1.89-1.89 1.89.883.882 2.772-2.772-2.772-2.773M12.763 13.125l-.883-.883-2.773 2.773 2.773 2.772.883-.883-1.89-1.89 1.89-1.889M13.035 18.888l2.696-7.415 1.173.426-2.696 7.416-1.173-.427"/>
        <path d="M14.985 21.883a6.876 6.876 0 0 1-6.868-6.868 6.876 6.876 0 0 1 6.868-6.869 6.876 6.876 0 0 1 6.869 6.869 6.876 6.876 0 0 1-6.869 6.868zm0-14.985c-4.476 0-8.117 3.641-8.117 8.117 0 4.475 3.641 8.117 8.117 8.117 4.476 0 8.117-3.642 8.117-8.117 0-4.476-3.64-8.117-8.117-8.117z"/>
    </g>
</svg>
