<svg xmlns="http://www.w3.org/2000/svg" width="30" height="30" viewBox="0 0 30 30">
    <g fill="#FFF" fill-rule="evenodd">
        <path d="M19.562 21.08a5.928 5.928 0 0 0 1.26-3.657 5.928 5.928 0 0 0-1.254-3.651c2.468 1.134 4.049 2.91 4.632 3.652-.582.744-2.161 2.523-4.638 3.656zm-4.577 1.007c-2.53 0-4.587-2.092-4.587-4.664 0-2.572 2.057-4.665 4.587-4.665s4.588 2.093 4.588 4.665-2.058 4.664-4.588 4.664zm-9.214-4.666c.581-.744 2.16-2.523 4.637-3.656a5.928 5.928 0 0 0-1.26 3.658c0 1.377.472 2.644 1.255 3.65-2.468-1.134-4.05-2.91-4.632-3.652zm19.727-.341c-.15-.228-3.738-5.57-10.513-5.57-6.774 0-10.362 5.342-10.512 5.57l-.225.343.225.342c.15.228 3.738 5.571 10.512 5.571 6.775 0 10.363-5.343 10.513-5.57l.225-.343-.225-.343z"/>
        <path d="M14.985 18.332a.899.899 0 0 1-.886-.91c0-.5.397-.909.886-.909.49 0 .887.408.887.91 0 .5-.398.909-.887.909zm0-3.067c-1.177 0-2.135.968-2.135 2.158s.958 2.157 2.135 2.157c1.178 0 2.136-.968 2.136-2.157 0-1.19-.958-2.158-2.136-2.158zM26.224 3.776h1.25v-1.25h-1.25zM23.727 3.776h1.249v-1.25h-1.25zM21.23 3.776h1.248v-1.25h-1.249zM3.122 3.776h16.234v-1.25H3.122z"/>
        <path d="M1.249 5.024h27.473V1.278H1.249v3.746zm0 23.727h27.473V6.273H1.249v22.478zM0 30h29.97V.03H0V30z"/>
        <path d="M14.361 9.93h1.249V8.057H14.36zM19.44 10.954l.936-1.622 1.081.624-.936 1.623-1.081-.625M8.514 9.958l1.081-.624.937 1.622-1.082.624-.936-1.622M14.361 26.878h1.249v-1.873H14.36zM19.44 23.977l1.082-.624.937 1.622-1.082.625-.937-1.623M8.516 24.975l.936-1.623 1.082.625-.936 1.622-1.082-.624"/>
    </g>
</svg>
