<svg xmlns="http://www.w3.org/2000/svg" width="34" height="36" viewBox="0 0 34 36">
    <g fill="#FFF" fill-rule="evenodd">
        <path d="M15.688 2.972h1.486V0h-1.486zM7.596 2.556l1.303-.74 1.505 2.563-1.303.74-1.505-2.563M1.817 8.9l.74-1.304 2.562 1.505-.74 1.303-2.562-1.505M0 17.174h2.972v-1.486H0zM1.817 24.128l2.562-1.504.74 1.303-2.563 1.504-.74-1.303M27.743 23.927l.74-1.303 2.563 1.504-.74 1.303-2.563-1.504M30.055 17.174h2.973v-1.486h-2.973zM27.743 9.1l2.563-1.504.74 1.303-2.563 1.505-.74-1.303M22.624 4.38l1.504-2.563 1.303.74-1.504 2.562-1.303-.74M21.695 28.49H11.368c-.609-2.734-1.632-5.283-3.065-7.533-1.216-1.909-1.718-4.126-1.452-6.41.518-4.445 4.112-8.029 8.545-8.523 2.816-.312 5.516.547 7.606 2.423a9.792 9.792 0 0 1 3.244 7.277 9.745 9.745 0 0 1-1.342 4.942c-1.513 2.569-2.576 5.186-3.209 7.824zm-.526 3.004h-9.314a27.104 27.104 0 0 0-.2-1.502h9.73c-.088.5-.16 1.001-.216 1.502zm-.163 2.644v.36h-8.983v-.042c0-.49-.023-.976-.048-1.46h9.072c-.018.38-.041.761-.041 1.142zm6.737-18.414c0-3.2-1.364-6.26-3.743-8.396-2.41-2.165-5.523-3.158-8.77-2.797-5.118.571-9.268 4.71-9.866 9.84-.307 2.633.273 5.19 1.678 7.395 1.28 2.011 2.209 4.285 2.788 6.724h-2.3v1.502h2.607c.086.496.158.996.214 1.502H8.28v1.502h2.199c.026.484.046.969.046 1.46V36h11.978v-1.862c0-.38.022-.761.041-1.142h2.205v-1.502h-2.075c.06-.5.138-1.001.232-1.502h2.591V28.49H23.24c.609-2.376 1.585-4.736 2.953-7.06a11.25 11.25 0 0 0 1.551-5.706z"/>
    </g>
</svg>
