<svg xmlns="http://www.w3.org/2000/svg" width="37" height="36" viewBox="0 0 37 36">
    <path fill="#FFF" fill-rule="evenodd" d="M1.502 29.242h33.037V26.24H1.502v3.003zm11.262 5.256h10.512v-3.754H12.764v3.754zm.741-15.901c-.791 1.238-2.23 2.548-4.752 2.372.64-.641 1.257-1.604 1.438-3.005.011-.084.303-2.076 1.89-2.315.402-.062.807.063 1.136.319.08.104.168.205.265.303.03.03.065.051.096.08.082.119.156.246.21.388.212.555.106 1.25-.283 1.858zM1.502 5.967h17.725a77.465 77.465 0 0 0-2.642 2.416c-1.996 1.995-3.19 3.579-3.653 4.842a3.73 3.73 0 0 0-.22.95 2.876 2.876 0 0 0-.855-.01c-2.712.408-3.139 3.474-3.156 3.604-.232 1.808-1.463 2.582-1.981 2.831a.838.838 0 0 0-.469.834.848.848 0 0 0 .628.738 9.261 9.261 0 0 0 2.328.317c3.065 0 4.761-1.829 5.564-3.083.474-.742.681-1.56.608-2.356.362-.008.744-.08 1.148-.228 1.264-.464 2.848-1.659 4.843-3.654.062-.061 3.613-3.737 6.073-7.202h7.096v18.771H1.502V5.967zm15.486 8.943a5.448 5.448 0 0 1-.978.501c-.66.244-1.023.15-1.32-.084a3.204 3.204 0 0 0-.356-.38c-.167-.278-.203-.631.007-1.205.107-.293.28-.621.502-.978l2.145 2.146zM28.276 1.477c-.302 1.504-4.002 6.664-7.968 10.63a27.797 27.797 0 0 1-2.09 1.909l-2.48-2.481a27.794 27.794 0 0 1 1.908-2.09c3.967-3.966 9.127-7.666 10.63-7.968zm7.765 29.267V4.464h-7.6c1.124-1.831 1.715-3.429.996-4.148-1.266-1.267-5.245 1.513-8.444 4.148H0v26.28h11.263v3.754H8.259V36h19.522v-1.502h-3.003v-3.754h11.263z"/>
</svg>
